HIERARCHY
ROOT Hips
{
 OFFSET 0.000000 0.000000 0.000000
 CHANNELS 6 Xposition Yposition Zposition Yrotation Xrotation Zrotation
 JOINT Chest
 {
  OFFSET 0.000000 9.588913 -0.003946
  CHANNELS 3 Yrotation Xrotation Zrotation
  JOINT Chest2
  {
   OFFSET 0.000000 9.541882 0.008053
   CHANNELS 3 Yrotation Xrotation Zrotation
   JOINT Chest3
   {
    OFFSET 0.000000 9.501360 0.000000
    CHANNELS 3 Yrotation Xrotation Zrotation
    JOINT Chest4
    {
     OFFSET 0.000000 9.491660 0.000000
     CHANNELS 3 Yrotation Xrotation Zrotation
     JOINT Neck
     {
      OFFSET 0.000000 14.331917 0.000000
      CHANNELS 3 Yrotation Xrotation Zrotation
      JOINT Head
      {
       OFFSET 0.000000 8.884799 0.017034
       CHANNELS 3 Yrotation Xrotation Zrotation
       End Site
       {
        OFFSET 0.000000 16.896195 0.008993
       }
      }
     }
     JOINT RightCollar
     {
      OFFSET -2.923010 9.499495 0.000000
      CHANNELS 3 Yrotation Xrotation Zrotation
      JOINT RightShoulder
      {
       OFFSET -13.795216 0.000000 0.000000
       CHANNELS 3 Yrotation Xrotation Zrotation
       JOINT RightElbow
       {
        OFFSET -30.272209 0.000000 0.000000
        CHANNELS 3 Yrotation Xrotation Zrotation
        JOINT RightWrist
        {
         OFFSET -24.478199 0.000000 0.000000
         CHANNELS 3 Yrotation Xrotation Zrotation
         End Site
         {
          OFFSET -18.090752 0.000000 0.000000
         }
        }
       }
      }
     }
     JOINT LeftCollar
     {
      OFFSET 2.923010 9.499495 0.000000
      CHANNELS 3 Yrotation Xrotation Zrotation
      JOINT LeftShoulder
      {
       OFFSET 13.795216 0.000000 0.000000
       CHANNELS 3 Yrotation Xrotation Zrotation
       JOINT LeftElbow
       {
        OFFSET 30.272209 0.000000 0.000000
        CHANNELS 3 Yrotation Xrotation Zrotation
        JOINT LeftWrist
        {
         OFFSET 24.478199 0.000000 0.000000
         CHANNELS 3 Yrotation Xrotation Zrotation
         End Site
         {
          OFFSET 18.090752 0.000000 0.000000
         }
        }
       }
      }
     }
    }
   }
  }
 }
 JOINT RightHip
 {
  OFFSET -7.826875 0.019532 0.001973
  CHANNELS 3 Yrotation Xrotation Zrotation
  JOINT RightKnee
  {
   OFFSET 0.000000 -40.546152 -0.001885
   CHANNELS 3 Yrotation Xrotation Zrotation
   JOINT RightAnkle
   {
    OFFSET 0.000000 -39.417092 -0.003189
    CHANNELS 3 Yrotation Xrotation Zrotation
    JOINT RightToe
    {
     OFFSET 0.000000 -7.579396 17.243563
     CHANNELS 3 Yrotation Xrotation Zrotation
     End Site
     {
      OFFSET 0.000000 -1.500329 6.694466
     }
    }
   }
  }
 }
 JOINT LeftHip
 {
  OFFSET 7.826875 0.019532 0.001973
  CHANNELS 3 Yrotation Xrotation Zrotation
  JOINT LeftKnee
  {
   OFFSET 0.000000 -40.546152 -0.001885
   CHANNELS 3 Yrotation Xrotation Zrotation
   JOINT LeftAnkle
   {
    OFFSET 0.000000 -39.417092 -0.003189
    CHANNELS 3 Yrotation Xrotation Zrotation
    JOINT LeftToe
    {
     OFFSET 0.000000 -7.579396 17.243563
     CHANNELS 3 Yrotation Xrotation Zrotation
     End Site
     {
      OFFSET 0.000000 -1.500329 6.694466
     }
    }
   }
  }
 }
}
MOTION
Frames: 14
Frame Time: 0.008333
37.309302 85.918866 -39.390046 73.860259 -3.656717 -0.913114 -6.207941 3.618457 4.837364 -3.782393 1.909990 2.403986 -4.715886 2.411826 2.985289 -3.782407 1.909985 2.403988 -31.460739 20.040141 -5.135852 -55.742456 4.324581 -1.200282 -1.725368 8.705085 -9.096796 -14.114365 -11.466888 92.028079 14.121111 -25.754516 0.847780 6.647002 -5.557701 1.436688 -3.940988 2.125957 -3.729105 2.272995 -2.934029 -92.572746 -1.254130 -13.945951 -8.880999 -9.977223 -6.925256 2.970880 -1.660918 -8.435866 -12.374422 2.232246 8.616608 0.205339 6.224254 2.380516 12.575158 -0.441295 1.185952 0.091067 23.303778 16.852539 6.612028 16.494399 5.217964 5.130230 18.087203 -12.533849 -15.716211 0.498696 -0.636957 0.215836
37.346818 85.905792 -39.410605 73.905137 -3.537073 -0.827028 -6.234792 3.690625 4.915982 -3.793291 1.957214 2.446311 -4.728997 2.471348 3.037668 -3.793305 1.957209 2.446312 -31.447584 20.036877 -5.133044 -55.719795 4.316991 -1.196459 -1.710914 8.729036 -9.151441 -14.046801 -11.448781 91.947978 13.815960 -25.715969 0.719715 6.557559 -5.524528 1.431823 -4.075655 2.022278 -3.826435 2.300072 -3.144706 -92.492874 -1.435479 -13.990048 -8.997052 -10.087133 -6.963222 3.001685 -1.586205 -8.566184 -12.512867 2.225680 8.721451 0.244296 6.156532 2.264740 12.523746 -0.448032 1.214809 0.077205 23.273955 16.809992 6.489447 16.494036 5.190263 5.129933 18.053172 -12.522110 -15.729159 0.483633 -0.623055 0.217700
37.384276 85.894147 -39.426072 73.972967 -3.431085 -0.746401 -6.266333 3.760900 4.991311 -3.806135 2.003229 2.488082 -4.744542 2.529367 3.089354 -3.806148 2.003224 2.488082 -31.430692 20.033275 -5.132180 -55.689804 4.307187 -1.196457 -1.681109 8.756283 -9.207383 -13.954082 -11.425171 91.866124 13.475500 -25.687352 0.570071 6.465395 -5.502251 1.423276 -4.222358 1.921584 -3.935804 2.384376 -3.330236 -92.426057 -1.645364 -14.050493 -9.107529 -10.187379 -6.994321 3.045919 -1.547844 -8.681271 -12.636401 2.223873 8.827237 0.272872 6.087910 2.144860 12.473959 -0.453674 1.244076 0.063560 23.230292 16.779743 6.383000 16.488136 5.155007 5.119680 18.024490 -12.507293 -15.736189 0.463606 -0.608876 0.217045
37.420591 85.884322 -39.436333 74.061633 -3.333343 -0.669816 -6.301249 3.828652 5.060948 -3.820572 2.047928 2.529851 -4.762077 2.585755 3.141039 -3.820585 2.047922 2.529851 -31.410345 20.025141 -5.127371 -55.655274 4.290191 -1.188616 -1.637828 8.784433 -9.260549 -13.835433 -11.404206 91.778767 13.102671 -25.671209 0.398925 6.363637 -5.482250 1.411943 -4.363261 1.830717 -4.047206 2.520330 -3.503618 -92.376558 -1.871605 -14.112589 -9.222861 -10.296919 -7.030773 3.105168 -1.527923 -8.784777 -12.746785 2.231656 8.934864 0.291324 6.001996 2.022076 12.424923 -0.457152 1.272359 0.052341 23.178730 16.755651 6.291135 16.482144 5.112930 5.101104 17.986759 -12.489200 -15.734308 0.435704 -0.595198 0.211272
37.455433 85.876714 -39.441098 74.162386 -3.242905 -0.596191 -6.333237 3.898365 5.125474 -3.835693 2.091096 2.570794 -4.780472 2.640230 3.191701 -3.835706 2.091091 2.570794 -31.385014 20.010275 -5.114415 -55.614952 4.263452 -1.165196 -1.582971 8.814991 -9.303344 -13.697922 -11.393501 91.683523 12.705035 -25.659830 0.207781 6.241872 -5.460598 1.402588 -4.488629 1.755161 -4.147706 2.682035 -3.687551 -92.350850 -2.096110 -14.187297 -9.347371 -10.430159 -7.082478 3.174820 -1.507589 -8.876582 -12.846454 2.251816 9.043664 0.301609 5.892760 1.898614 12.375016 -0.457318 1.297693 0.045525 23.131048 16.734039 6.212832 16.483039 5.067438 5.077496 17.937590 -12.465397 -15.730334 0.409562 -0.582877 0.204504
37.488097 85.871579 -39.440772 74.273122 -3.154932 -0.522912 -6.362145 3.968313 5.186838 -3.850349 2.133129 2.610147 -4.798293 2.693268 3.240387 -3.850361 2.133123 2.610147 -31.352877 19.988738 -5.092176 -55.565853 4.227106 -1.124579 -1.519901 8.846155 -9.332834 -13.549219 -11.395494 91.577831 12.285955 -25.641742 -0.000783 6.094051 -5.434818 1.397440 -4.595787 1.693450 -4.232403 2.830120 -3.896330 -92.348324 -2.304619 -14.300344 -9.489993 -10.599142 -7.155438 3.258447 -1.483476 -8.963305 -12.936120 2.284439 9.155939 0.300511 5.760920 1.774164 12.321948 -0.454003 1.319662 0.045784 23.090116 16.712054 6.144104 16.482745 5.016463 5.050209 17.877428 -12.431811 -15.724956 0.385238 -0.574306 0.197566
37.517852 85.869022 -39.436266 74.397285 -3.062875 -0.446466 -6.390165 4.034795 5.244717 -3.863817 2.173890 2.647985 -4.814639 2.744696 3.287197 -3.863830 2.173885 2.647986 -31.315135 19.964007 -5.064135 -55.508702 4.186149 -1.073801 -1.450908 8.871437 -9.349291 -13.400782 -11.403820 91.460381 11.849635 -25.605505 -0.220268 5.914436 -5.399886 1.395004 -4.692584 1.634446 -4.303670 2.940387 -4.127789 -92.357578 -2.490187 -14.467916 -9.662557 -10.812245 -7.253704 3.361349 -1.463676 -9.053254 -13.018203 2.324017 9.272545 0.286557 5.613729 1.647871 12.262460 -0.447313 1.339098 0.054133 23.054021 16.685608 6.079406 16.477768 4.958131 5.022068 17.794796 -12.386810 -15.716927 0.356792 -0.572137 0.189396
37.545152 85.869053 -39.428575 74.533617 -2.966187 -0.362138 -6.413828 4.097624 5.296526 -3.875928 2.210704 2.683344 -4.829320 2.791158 3.330953 -3.875939 2.210700 2.683344 -31.275978 19.942346 -5.037828 -55.448090 4.149563 -1.027357 -1.377330 8.891413 -9.353691 -13.263276 -11.405940 91.334189 11.408128 -25.541323 -0.444908 5.696229 -5.355619 1.393041 -4.787813 1.568824 -4.368488 3.009936 -4.368368 -92.362712 -2.651112 -14.682566 -9.870957 -11.069860 -7.384085 3.479479 -1.454624 -9.147682 -13.099862 2.360495 9.390891 0.263698 5.465541 1.520115 12.195668 -0.438705 1.357057 0.067317 23.026948 16.652885 6.011956 16.467998 4.896294 4.996446 17.696486 -12.329378 -15.713337 0.329009 -0.576721 0.184075
37.570609 85.871555 -39.418409 74.684386 -2.865254 -0.267820 -6.431675 4.153895 5.339692 -3.886914 2.240155 2.714648 -4.842663 2.828370 3.369720 -3.886923 2.240151 2.714648 -31.240090 19.930609 -5.017921 -55.390222 4.128625 -0.994957 -1.302508 8.917092 -9.344126 -13.142992 -11.394190 91.201775 10.973529 -25.444568 -0.669510 5.436047 -5.302221 1.388118 -4.883577 1.494814 -4.434682 3.045635 -4.602028 -92.350632 -2.794944 -14.915706 -10.112695 -11.355075 -7.545508 3.602355 -1.464860 -9.246800 -13.188497 2.382837 9.509148 0.238595 5.334711 1.391974 12.123581 -0.430100 1.373095 0.080079 23.006530 16.612595 5.938960 16.451717 4.836870 4.975891 17.584254 -12.261583 -15.719692 0.304321 -0.589086 0.183940
37.594188 85.876280 -39.405686 74.860780 -2.757911 -0.167798 -6.447767 4.198629 5.374507 -3.897650 2.260813 2.741888 -4.855773 2.854550 3.403495 -3.897657 2.260809 2.741887 -31.210830 19.931967 -5.003535 -55.340996 4.130036 -0.975683 -1.234087 8.956960 -9.318927 -13.040344 -11.369854 91.066717 10.551254 -25.316177 -0.891990 5.136845 -5.236645 1.378821 -4.978319 1.416370 -4.503632 3.053147 -4.818646 -92.317352 -2.937741 -15.137984 -10.383034 -11.643319 -7.725618 3.719971 -1.505300 -9.352328 -13.284967 2.384773 9.627928 0.218007 5.228309 1.264689 12.047572 -0.422073 1.385492 0.088801 22.978213 16.560310 5.863750 16.438743 4.783148 4.962903 17.437580 -12.189286 -15.733556 0.278013 -0.609030 0.185524
37.616094 85.882929 -39.389503 75.066477 -2.645119 -0.070142 -6.463885 4.232357 5.405399 -3.908878 2.273959 2.766278 -4.869565 2.871317 3.433780 -3.908884 2.273955 2.766277 -31.188150 19.942092 -4.989917 -55.302282 4.148058 -0.959814 -1.176507 9.013971 -9.285031 -12.953941 -11.339622 90.940333 10.144053 -25.163248 -1.113605 4.805802 -5.156216 1.362140 -5.065934 1.344151 -4.569516 3.032471 -5.020380 -92.267371 -3.099077 -15.335656 -10.683418 -11.915418 -7.899864 3.826770 -1.570856 -9.461626 -13.381433 2.368294 9.749267 0.201898 5.133496 1.140319 11.972303 -0.415794 1.392437 0.090816 22.935579 16.493485 5.791883 16.434208 4.733659 4.956240 17.266593 -12.114421 -15.752518 0.253554 -0.630857 0.187059
37.639546 85.891295 -39.368783 75.276500 -2.546113 0.022447 -6.461882 4.274299 5.430444 -3.919432 2.282993 2.789430 -4.882548 2.882928 3.462562 -3.919437 2.282989 2.789428 -31.169175 19.953173 -4.971641 -55.271503 4.170441 -0.935687 -1.129394 9.086945 -9.250501 -12.889375 -11.309093 90.836038 9.756399 -24.988926 -1.335042 4.456966 -5.064466 1.333481 -5.141069 1.286360 -4.624586 2.984370 -5.215528 -92.207931 -3.296350 -15.503324 -11.016022 -12.150708 -8.037150 3.916315 -1.624420 -9.557254 -13.474237 2.342186 9.889683 0.187123 5.032156 0.978524 11.907911 -0.419292 1.422962 0.081129 22.899637 16.429548 5.732168 16.424661 4.687760 4.949499 17.117458 -12.026368 -15.771406 0.227200 -0.657405 0.183910
37.660478 85.900828 -39.343187 75.515167 -2.437366 0.098742 -6.470757 4.300981 5.460160 -3.927879 2.291768 2.812529 -4.892899 2.894201 3.491294 -3.927885 2.291764 2.812528 -31.150494 19.958786 -4.945763 -55.244201 4.186267 -0.896488 -1.096129 9.167890 -9.221587 -12.851938 -11.280635 90.762945 9.389501 -24.791628 -1.554225 4.104055 -4.968412 1.293143 -5.203280 1.241596 -4.666664 2.911808 -5.411845 -92.141570 -3.534355 -15.635982 -11.379786 -12.336178 -8.124916 3.978801 -1.688180 -9.657978 -13.550773 2.313512 10.025213 0.173160 4.916873 0.864583 11.849930 -0.416620 1.414295 0.068382 22.841461 16.344600 5.685825 16.400175 4.648683 4.941787 16.981262 -11.950036 -15.789927 0.208889 -0.673134 0.178900
37.681839 85.911299 -39.312961 75.766016 -2.335327 0.164218 -6.477611 4.326633 5.490273 -3.933954 2.302615 2.835640 -4.900268 2.908047 3.520036 -3.933960 2.302612 2.835640 -31.128906 19.955442 -4.912578 -55.214957 4.188554 -0.841996 -1.079049 9.249061 -9.203656 -12.843098 -11.254875 90.723129 9.041755 -24.575366 -1.766153 3.758400 -4.874861 1.244920 -5.254247 1.203436 -4.701480 2.825801 -5.615176 -92.067610 -3.805299 -15.719999 -11.770970 -12.473974 -8.171683 4.010826 -1.750979 -9.749952 -13.617867 2.281714 10.166990 0.161511 4.795963 0.754812 11.798485 -0.413411 1.399614 0.052233 22.778872 16.254428 5.655728 16.362136 4.621071 4.938246 16.848779 -11.878416 -15.804613 0.185065 -0.689650 0.165837
